<svg width="240" height="72" viewBox="0 60 800 120" fill="none" xmlns="http://www.w3.org/2000/svg">
<g id="GeoSMART_svg_logo">
<g id="earth">
<path id="ocean" d="M126.733 196.319C167.381 196.319 200.333 163.367 200.333 122.719C200.333 82.0706 167.381 49.1187 126.733 49.1187C86.0855 49.1187 53.1333 82.0706 53.1333 122.719C53.1333 163.367 86.0855 196.319 126.733 196.319Z" fill="#7DAEBF"/>
<path id="continents" d="M195.156 123.797C195.127 123.355 195.097 122.913 195.068 122.501C194.951 121.204 194.832 119.937 194.656 118.67C194.627 118.346 194.567 118.021 194.537 117.697C194.303 116.194 194.037 114.692 193.713 113.218C193.624 112.747 193.507 112.305 193.388 111.833C193.153 110.773 192.859 109.712 192.564 108.651C192.416 108.121 192.269 107.59 192.121 107.09C191.709 105.764 191.267 104.437 190.796 103.14C190.56 102.521 190.324 101.903 190.059 101.284C189.764 100.519 189.44 99.752 189.116 99.016C188.792 98.308 188.497 97.6013 188.173 96.8933C187.849 96.1866 187.495 95.5093 187.141 94.8307C186.523 93.6227 185.875 92.444 185.197 91.2946C184.903 90.824 184.637 90.3227 184.343 89.852C184.048 89.38 183.812 88.908 183.517 88.4667L183.104 87.848L183.075 87.8773C178.803 81.4533 173.528 75.7373 167.517 70.9333L167.841 70.9933L164.629 68.6946C157.469 63.5667 149.543 59.7946 141.085 57.4973L140.643 57.3786L140.613 57.408C135.575 56.0827 130.33 55.2573 124.937 55.0213L125.085 54.9333H121.667C120.37 54.9333 119.044 54.9626 117.777 55.0506C117.541 55.0506 117.306 55.0813 117.041 55.1093C115.98 55.1693 114.919 55.2573 113.858 55.376C113.622 55.4053 113.416 55.4346 113.18 55.464C112.119 55.5813 111.059 55.7293 109.998 55.9053C109.792 55.936 109.585 55.9947 109.379 56.024C108.318 56.2 107.257 56.4066 106.197 56.6133C105.991 56.672 105.755 56.7013 105.548 56.76C104.517 56.996 103.486 57.232 102.484 57.5266C102.219 57.5853 101.983 57.6733 101.718 57.7333C100.745 57.9973 99.8027 58.2933 98.8593 58.5867C98.5355 58.676 98.2407 58.7933 97.9167 58.912C97.062 59.2053 96.2073 59.5 95.3531 59.8253C94.9697 59.972 94.5573 60.1187 94.1745 60.296C93.4375 60.5907 92.7303 60.8853 91.9937 61.2093C91.4927 61.416 91.0213 61.652 90.5203 61.8573C89.9312 62.124 89.3713 62.4173 88.7817 62.712C88.1927 63.0066 87.6031 63.3026 87.014 63.6266C86.6016 63.832 86.1891 64.068 85.8057 64.304C85.0693 64.716 84.362 65.128 83.6547 65.5413C83.4781 65.66 83.3011 65.7773 83.0948 65.8946C76.8771 69.6666 71.1901 74.4106 66.2693 80.0093L65.7683 80.5986L65.7979 80.6573C54.7183 93.5347 48 110.272 48 128.57C48 169.205 81.0323 202.237 121.667 202.237C161.505 202.237 194.007 170.472 195.275 130.928L195.333 130.987V128.57C195.333 126.979 195.275 125.388 195.156 123.797ZM121.667 200.381C82.0636 200.381 49.8563 168.173 49.8563 128.57C49.8563 110.861 56.3093 94.6546 66.9765 82.1306C68.1849 83.7226 70.6303 87.0226 71.75 89.2613C72.1333 90.028 72.3984 91.148 72.7224 92.5333C73.5771 96.216 74.8735 101.756 80.4427 108.415C81.5921 109.8 83.3307 110.832 85.1869 111.952C87.8093 113.543 90.8151 115.34 92.5536 118.405C95.8245 124.121 98.4765 124.799 101.688 125.594C102.867 125.889 103.84 126.714 104.93 127.657C106.373 128.895 108.171 130.456 111.088 131.281C112.06 131.576 112.856 131.753 113.475 131.901C115.773 132.46 115.773 132.46 118.19 135.377C118.573 135.849 119.221 137.057 119.251 137.352C118.602 140.239 118.602 143.363 119.221 145.72C120.252 149.698 123.081 151.937 125.32 153.735C126.587 154.737 127.678 155.621 128.091 156.505C129.033 158.539 127.914 167.202 126.47 174.391C126.322 175.128 126.086 175.983 125.792 176.925C124.614 180.992 123.022 186.532 126.617 191.481C128.237 193.692 129.741 194.783 131.214 194.783C131.332 194.783 131.449 194.783 131.568 194.752C133.011 194.576 133.925 193.309 134.22 192.572L134.515 191.836L133.836 191.423C131.184 189.803 131.302 187.563 132.953 182.081C134.131 178.163 136.812 175.864 139.7 173.419C140.408 172.8 141.115 172.21 141.792 171.592C145.357 168.292 152.519 157.595 156.26 151.377C158.205 148.136 158.736 145.396 157.793 143.216C156.88 141.064 154.581 139.591 150.987 138.825C146.241 137.793 145.211 136.851 142.735 134.581C142.235 134.11 141.675 133.609 140.997 133.049C136.931 129.514 129.122 128.689 128.916 128.689C126.882 128.217 124.849 128.689 123.258 130.132C121.49 127.598 115.096 123.591 112.208 122.265C110.764 121.616 109.349 121.44 108.082 121.322C106.137 121.116 104.606 120.939 103.339 119.2C101.069 116.077 106.167 111.48 106.757 110.979C108.201 109.741 109.438 109.181 110.499 109.358C112.031 109.623 113.063 111.421 113.74 112.629C113.946 113.012 114.153 113.336 114.3 113.543C115.42 115.075 117.099 117.373 119.221 117.02C119.81 116.931 120.105 116.607 120.252 116.342C120.694 115.605 120.37 114.663 119.928 113.395C119.457 112.069 118.838 110.272 118.956 108.356C119.192 104.732 127.265 97.512 133.748 91.7373L134.485 91.0893C136.931 88.908 137.991 86.964 137.727 85.1067C137.284 81.8653 133.041 79.8027 127.707 77.1813C126.971 76.8266 126.205 76.444 125.439 76.0613C122.138 74.4106 120.577 74.0867 119.663 74.8827C118.749 75.6773 119.221 77.004 119.663 78.3C119.84 78.8307 120.193 79.8333 120.223 79.98C119.162 80.4813 113.004 78.536 111.619 76.2666C111.383 75.884 111.235 75.472 112.002 74.8827L113.357 73.8506C116.304 71.6413 117.925 70.4026 117.512 69.048C117.187 67.9573 115.803 67.7213 114.389 67.6626C111.501 67.516 108.583 66.0133 108.436 64.952C108.377 64.5093 109.055 63.7146 111.177 62.9773C116.834 60.9733 118.248 63.1547 120.046 65.924C120.311 66.3373 120.606 66.7786 120.901 67.192C123.346 70.6693 125.733 73.792 127.972 74.116C128.651 74.2053 129.269 74.028 129.77 73.6147L130.212 73.2906C131.361 72.4067 132.953 71.1987 132.805 69.2827C132.658 67.3093 130.654 65.364 126.529 63.1253C122.049 60.6786 121.313 58.9707 121.284 58.1747C121.254 57.4973 121.696 57.0253 121.961 56.8186C127.884 56.848 133.66 57.5853 139.169 58.9707C138.197 60.7386 137.225 64.4507 139.877 71.288C141.173 74.588 142.705 76.3853 144.592 76.768C144.857 76.8267 145.123 76.8573 145.357 76.8573C147.715 76.8573 149.867 74.7053 151.635 72.9373C152.105 72.4667 152.548 72.024 152.96 71.6413C155.2 69.6373 161.093 69.9906 163.509 70.344C170.435 75.324 176.445 81.512 181.219 88.6133C178.537 89.7626 172.32 92.8573 173.085 96.628C173.557 99.016 176.445 100.783 179.215 102.521C180.865 103.553 183.399 105.115 183.252 105.881C183.193 106.147 182.899 106.264 181.691 106.383C180.483 106.5 179.009 106.648 178.155 107.915C177.388 109.034 177.359 110.743 178.036 113.248C178.184 113.837 178.243 114.692 178.301 115.605C178.479 118.67 178.744 123.296 184.019 123.974C188.821 124.593 192.475 128.01 193.388 128.954C193.271 168.351 161.152 200.381 121.667 200.381Z" fill="#417B30"/>
</g>
<g id="text">
<path id="smartLabel" d="M485.772 160.614C490.02 156.859 492.144 151.573 492.144 144.761C492.144 141.602 491.705 138.863 490.828 136.545C489.948 134.228 488.668 132.21 486.983 130.489C485.297 128.769 483.191 127.241 480.663 125.907C478.135 124.573 475.255 123.309 472.025 122.115C469.145 121.061 466.688 120.044 464.652 119.06C462.615 118.077 460.929 116.99 459.596 115.794C458.261 114.602 457.295 113.303 456.7 111.897C456.103 110.493 455.804 108.843 455.804 106.946C455.804 102.593 457.243 99.152 460.123 96.624C463.001 94.096 466.899 92.832 471.815 92.832C474.061 92.832 476.643 93.0266 479.557 93.4107C482.469 93.7973 485.508 94.3773 488.668 95.1493L489.089 87.9867C485.719 87.144 482.575 86.5307 479.663 86.1427C476.748 85.7587 473.956 85.564 471.288 85.564C467.636 85.564 464.336 86.0733 461.387 87.0907C458.437 88.1093 455.909 89.5493 453.803 91.4093C451.696 93.272 450.08 95.5173 448.957 98.1507C447.833 100.784 447.272 103.717 447.272 106.946C447.272 109.967 447.657 112.6 448.431 114.846C449.203 117.095 450.415 119.078 452.065 120.798C453.713 122.519 455.768 124.029 458.227 125.327C460.684 126.628 463.599 127.873 466.969 129.067C469.637 130.051 472.008 131.033 474.08 132.016C476.149 133 477.888 134.107 479.293 135.333C480.697 136.563 481.769 137.967 482.507 139.547C483.244 141.127 483.612 142.971 483.612 145.077C483.612 149.502 482.191 152.908 479.347 155.295C476.503 157.683 472.411 158.876 467.075 158.876C465.529 158.876 463.844 158.788 462.019 158.612C460.192 158.439 458.367 158.191 456.541 157.875C454.715 157.559 452.924 157.191 451.169 156.769C449.413 156.348 447.868 155.892 446.535 155.4L446.113 162.668C447.657 163.231 449.361 163.721 451.223 164.143C453.081 164.564 454.977 164.932 456.911 165.248C458.841 165.564 460.755 165.809 462.651 165.985C464.547 166.16 466.301 166.249 467.917 166.249C475.571 166.249 481.521 164.371 485.772 160.614ZM503.361 164.88H511.261V99.5733H511.788L517.16 114.32L535.277 161.509H543.388L561.505 114.32L566.772 99.5733H567.404V164.88H575.409V86.9333H563.823L544.02 138.863L539.701 151.608H539.069L534.751 138.863L514.948 86.9333H503.361V164.88ZM585.341 164.88H593.452L600.931 141.285H630.74L638.429 164.88H646.54V164.248L621.997 86.9333H609.779L585.341 164.248V164.88ZM602.932 134.123L611.78 106.315L615.467 94.096H616.309L619.996 106.315L628.844 134.123H602.932ZM697.131 164.88H706.295L689.757 134.123C694.881 132.437 698.657 129.717 701.08 125.959C703.503 122.203 704.715 117.235 704.715 111.055C704.715 102.277 702.256 95.8693 697.341 91.8307C692.425 87.7933 684.631 85.7747 673.957 85.7747C668.128 85.7747 662.3 86.3373 656.472 87.46V164.88H664.899V135.703C666.373 135.844 667.935 135.965 669.585 136.071C671.235 136.176 672.728 136.229 674.063 136.229C675.467 136.229 676.836 136.195 678.171 136.124C679.504 136.055 680.804 135.949 682.068 135.808L697.131 164.88ZM669.796 128.961C668.005 128.821 666.373 128.645 664.899 128.434V93.8853C666.724 93.6053 668.567 93.3947 670.428 93.2533C672.288 93.1133 673.921 93.0426 675.327 93.0426C682.7 93.0426 688.001 94.448 691.232 97.256C694.461 100.065 696.077 104.665 696.077 111.055C696.077 117.516 694.427 122.151 691.127 124.958C687.825 127.768 682.419 129.172 674.905 129.172C673.289 129.172 671.587 129.103 669.796 128.961ZM733.037 164.88H741.569V94.412H762.952V86.9333H711.655V94.412H733.037V164.88Z" fill="black"/>
<path id="geoLabel" d="M295.968 165.372C300.268 164.897 305.152 164.188 310.619 163.24V123.77H290.392V147.715C289.736 147.788 289.097 147.824 288.479 147.824C287.859 147.824 287.257 147.824 286.675 147.824C283.467 147.824 280.843 147.496 278.803 146.84C276.761 146.184 275.14 144.981 273.937 143.232C272.735 141.483 271.896 139.096 271.423 136.071C270.948 133.047 270.712 129.202 270.712 124.536C270.712 119.944 271.021 116.136 271.641 113.11C272.26 110.087 273.317 107.663 274.812 105.84C276.305 104.019 278.328 102.743 280.88 102.013C283.431 101.285 286.675 100.92 290.611 100.92C292.869 100.92 295.512 101.084 298.537 101.412C301.561 101.74 305.115 102.269 309.197 102.997V85.3947C305.844 84.52 302.4 83.864 298.865 83.4267C295.329 82.9893 291.885 82.7707 288.533 82.7707C274.903 82.7707 264.699 86.252 257.92 93.212C251.141 100.173 247.752 110.579 247.752 124.427C247.752 138.421 250.74 148.863 256.717 155.751C262.693 162.639 271.877 166.083 284.269 166.083C287.768 166.083 291.667 165.845 295.968 165.372ZM360.355 164.935C364.545 164.316 368.244 163.496 371.452 162.475L370.905 146.84C367.188 147.643 363.397 148.316 359.535 148.863C355.671 149.409 352.464 149.683 349.913 149.683C348.309 149.683 346.961 149.592 345.868 149.409C344.775 149.228 343.881 148.863 343.189 148.316C342.496 147.769 341.968 146.986 341.604 145.965C341.239 144.945 340.984 143.597 340.839 141.92H372.764C373.055 140.608 373.256 139.296 373.365 137.984C373.475 136.672 373.529 134.96 373.529 132.845C373.529 123.224 371.507 116.155 367.461 111.634C363.416 107.116 357.129 104.856 348.601 104.856C338.688 104.856 331.272 107.444 326.352 112.619C321.432 117.795 318.972 125.484 318.972 135.688C318.972 155.805 328.775 165.864 348.383 165.864C352.172 165.864 356.163 165.553 360.355 164.935ZM352.756 122.458C353.703 123.844 354.249 126.285 354.396 129.784H340.729C341.02 126.14 341.695 123.661 342.752 122.349C343.808 121.037 345.503 120.381 347.836 120.381C350.168 120.381 351.808 121.075 352.756 122.458ZM432.316 158.265C437.308 153.055 439.805 145.419 439.805 135.36C439.805 125.23 437.308 117.593 432.316 112.455C427.323 107.316 419.943 104.747 410.176 104.747C400.408 104.747 393.011 107.335 387.981 112.509C382.952 117.685 380.437 125.301 380.437 135.36C380.437 145.419 382.952 153.055 387.981 158.265C393.011 163.477 400.408 166.083 410.176 166.083C419.943 166.083 427.323 163.477 432.316 158.265ZM406.131 149.191C405.109 148.863 404.308 148.171 403.725 147.114C403.141 146.057 402.759 144.598 402.577 142.74C402.395 140.881 402.304 138.421 402.304 135.36C402.304 132.298 402.395 129.839 402.577 127.98C402.759 126.121 403.141 124.683 403.725 123.661C404.308 122.641 405.109 121.967 406.131 121.639C407.151 121.31 408.499 121.146 410.176 121.146C411.779 121.146 413.091 121.31 414.112 121.639C415.132 121.967 415.916 122.641 416.463 123.661C417.009 124.683 417.392 126.121 417.611 127.98C417.829 129.839 417.939 132.298 417.939 135.36C417.939 138.421 417.829 140.881 417.611 142.74C417.392 144.598 417.009 146.057 416.463 147.114C415.916 148.171 415.132 148.863 414.112 149.191C413.091 149.519 411.779 149.683 410.176 149.683C408.499 149.683 407.151 149.519 406.131 149.191Z" fill="#557A42"/>
</g>
<path id="smallCrescent" d="M121.499 219.035C174.923 219.035 218.231 175.727 218.231 122.304C218.231 68.8813 174.923 25.5733 121.499 25.5733C68.0765 25.5733 24.7688 68.8813 24.7688 122.304C24.7688 175.727 68.0765 219.035 121.499 219.035ZM98.0719 49.848C138.088 49.848 170.528 82.288 170.528 122.304C170.528 162.321 138.088 194.761 98.0719 194.761C58.0552 194.761 25.6151 162.321 25.6151 122.304C25.6151 82.288 58.0552 49.848 98.0719 49.848Z" fill="black"/>
<path id="largeCrescent" d="M120.363 25.5733C66.9396 25.5733 23.6317 68.8813 23.6317 122.304C23.6317 175.727 66.9396 219.035 120.363 219.035C173.785 219.035 217.093 175.727 217.093 122.304C217.093 68.8813 173.785 25.5733 120.363 25.5733ZM143.789 194.761C103.773 194.761 71.3333 162.321 71.3333 122.304C71.3333 82.288 103.773 49.848 143.789 49.848C183.807 49.848 216.247 82.288 216.247 122.304C216.247 162.321 183.807 194.761 143.789 194.761Z" fill="#557A42"/>
<path id="whiteCricles" d="M120.363 25.5734C66.9396 25.5734 23.6317 68.8813 23.6317 122.304C23.6317 175.727 66.9396 219.035 120.363 219.035C173.785 219.035 217.093 175.727 217.093 122.304C217.093 68.8813 173.785 25.5734 120.363 25.5734ZM143.789 194.761C103.773 194.761 71.3333 162.321 71.3333 122.304C71.3333 82.288 103.773 49.848 143.789 49.848C183.807 49.848 216.247 82.288 216.247 122.304C216.247 162.321 183.807 194.761 143.789 194.761V194.761Z" stroke="white" stroke-width="3.14667" stroke-miterlimit="10"/>
<g id="nodes">
<path id="rightNode" d="M214.787 121.259H199.233V115.046H183.661V130.619H199.233V124.406H214.787V121.259Z" fill="white"/>
<path id="bottomNode" d="M188.968 124.802V140.355H182.756V155.927H198.328V140.355H192.115V124.802H188.968Z" fill="white"/>
</g>
</g>
</svg>
